{
  "accessors": [
    {
      "bufferView": 2,
      "componentType": 5126,
      "count": 7779,
      "max": [
        19.270565032958984,
        0.0,
        64.2798843383789
      ],
      "min": [
        -1.268341064453125,
        -0.49302050471305847,
        -1.4413490295410156
      ],
      "type": "VEC3"
    },
    {
      "bufferView": 2,
      "byteOffset": 93348,
      "componentType": 5126,
      "count": 7779,
      "max": [
        1.0,
        1.0,
        1.0
      ],
      "min": [
        -1.0,
        -1.0,
        -1.0
      ],
      "type": "VEC3"
    },
    {
      "bufferView": 1,
      "componentType": 5126,
      "count": 7779,
      "max": [
        1.0,
        1.0
      ],
      "min": [
        0.0,
        0.0
      ],
      "type": "VEC2"
    },
    {
      "bufferView": 0,
      "componentType": 5125,
      "count": 15114,
      "type": "SCALAR"
    },
    {
      "bufferView": 2,
      "byteOffset": 186696,
      "componentType": 5126,
      "count": 280,
      "max": [
        -0.6276665925979614,
        25.35607147216797,
        1.186421275138855
      ],
      "min": [
        -0.9261455535888672,
        -1.1220154762268066,
        -1.186421275138855
      ],
      "type": "VEC3"
    },
    {
      "bufferView": 2,
      "byteOffset": 190056,
      "componentType": 5126,
      "count": 280,
      "max": [
        -0.9999797344207764,
        0.0,
        4.714741407951806e-06
      ],
      "min": [
        -1.0,
        -0.006371918600052595,
        -8.162107405951247e-06
      ],
      "type": "VEC3"
    },
    {
      "bufferView": 1,
      "byteOffset": 62232,
      "componentType": 5126,
      "count": 280,
      "max": [
        1.0,
        1.0
      ],
      "min": [
        0.0,
        0.0
      ],
      "type": "VEC2"
    },
    {
      "bufferView": 1,
      "byteOffset": 64472,
      "componentType": 5126,
      "count": 280,
      "max": [
        1.0,
        1.0
      ],
      "min": [
        0.0,
        0.0
      ],
      "type": "VEC2"
    },
    {
      "bufferView": 0,
      "byteOffset": 60456,
      "componentType": 5125,
      "count": 822,
      "type": "SCALAR"
    },
    {
      "bufferView": 2,
      "byteOffset": 193416,
      "componentType": 5126,
      "count": 2322,
      "max": [
        -0.264553427696228,
        1.6988884210586548,
        11.177648544311523
      ],
      "min": [
        -1.0012073516845703,
        -1.0031867027282715,
        -1.2481170892715454
      ],
      "type": "VEC3"
    },
    {
      "bufferView": 2,
      "byteOffset": 221280,
      "componentType": 5126,
      "count": 2322,
      "max": [
        1.0,
        0.9991694688796997,
        0.9986289739608765
      ],
      "min": [
        -1.0,
        -0.9991695284843445,
        -0.9986289739608765
      ],
      "type": "VEC3"
    },
    {
      "bufferView": 1,
      "byteOffset": 66712,
      "componentType": 5126,
      "count": 2322,
      "max": [
        1.0,
        1.0
      ],
      "min": [
        0.0,
        0.0
      ],
      "type": "VEC2"
    },
    {
      "bufferView": 0,
      "byteOffset": 63744,
      "componentType": 5125,
      "count": 3822,
      "type": "SCALAR"
    },
    {
      "bufferView": 2,
      "byteOffset": 249144,
      "componentType": 5126,
      "count": 76,
      "max": [
        1.9724431037902832,
        1.7005174160003662,
        1.3218196630477905
      ],
      "min": [
        -1.053511619567871,
        -3.5816423892974854,
        -1.3218196630477905
      ],
      "type": "VEC3"
    },
    {
      "bufferView": 2,
      "byteOffset": 250056,
      "componentType": 5126,
      "count": 76,
      "max": [
        1.0,
        1.0,
        1.0
      ],
      "min": [
        -4.0132115408653135e-09,
        -1.0,
        -1.0
      ],
      "type": "VEC3"
    },
    {
      "bufferView": 1,
      "byteOffset": 85288,
      "componentType": 5126,
      "count": 76,
      "max": [
        1.0,
        1.0
      ],
      "min": [
        0.0,
        0.0
      ],
      "type": "VEC2"
    },
    {
      "bufferView": 0,
      "byteOffset": 79032,
      "componentType": 5125,
      "count": 168,
      "type": "SCALAR"
    },
    {
      "bufferView": 2,
      "byteOffset": 250968,
      "componentType": 5126,
      "count": 110,
      "max": [
        1.0710763931274414,
        1.7022093534469604,
        1.3325119018554688
      ],
      "min": [
        -1.0688915252685547,
        -1.0959911346435547,
        -1.3325120210647583
      ],
      "type": "VEC3"
    },
    {
      "bufferView": 2,
      "byteOffset": 252288,
      "componentType": 5126,
      "count": 110,
      "max": [
        1.0,
        1.0,
        0.9991351962089539
      ],
      "min": [
        -0.9968658685684204,
        -1.0,
        -0.9991351962089539
      ],
      "type": "VEC3"
    },
    {
      "bufferView": 1,
      "byteOffset": 85896,
      "componentType": 5126,
      "count": 110,
      "max": [
        0.875,
        1.0
      ],
      "min": [
        0.125,
        0.0
      ],
      "type": "VEC2"
    },
    {
      "bufferView": 1,
      "byteOffset": 86776,
      "componentType": 5126,
      "count": 110,
      "max": [
        0.875,
        1.0
      ],
      "min": [
        0.125,
        0.0
      ],
      "type": "VEC2"
    },
    {
      "bufferView": 0,
      "byteOffset": 79704,
      "componentType": 5125,
      "count": 174,
      "type": "SCALAR"
    },
    {
      "bufferView": 2,
      "byteOffset": 253608,
      "componentType": 5126,
      "count": 32,
      "max": [
        0.8818086385726929,
        1.7005174160003662,
        1.3373461961746216
      ],
      "min": [
        -1.0,
        -1.0031702518463135,
        -1.3373451232910156
      ],
      "type": "VEC3"
    },
    {
      "bufferView": 2,
      "byteOffset": 253992,
      "componentType": 5126,
      "count": 32,
      "max": [
        1.0,
        1.0,
        0.9984419345855713
      ],
      "min": [
        -1.0,
        -1.0,
        -0.9984419345855713
      ],
      "type": "VEC3"
    },
    {
      "bufferView": 1,
      "byteOffset": 87656,
      "componentType": 5126,
      "count": 32,
      "max": [
        0.625,
        1.0
      ],
      "min": [
        0.0,
        0.0
      ],
      "type": "VEC2"
    },
    {
      "bufferView": 0,
      "byteOffset": 80400,
      "componentType": 5125,
      "count": 48,
      "type": "SCALAR"
    },
    {
      "bufferView": 2,
      "byteOffset": 254376,
      "componentType": 5126,
      "count": 45,
      "max": [
        -0.9999999403953552,
        0.20822323858737946,
        1.1675992012023926
      ],
      "min": [
        -1.0,
        -1.0031867027282715,
        -1.167598843574524
      ],
      "type": "VEC3"
    },
    {
      "bufferView": 2,
      "byteOffset": 254916,
      "componentType": 5126,
      "count": 45,
      "max": [
        1.0,
        0.0,
        1.0621793222753695e-07
      ],
      "min": [
        1.0,
        -1.0302139941131827e-07,
        -0.0
      ],
      "type": "VEC3"
    },
    {
      "bufferView": 1,
      "byteOffset": 87912,
      "componentType": 5126,
      "count": 45,
      "max": [
        0.48381268978118896,
        0.9915727972984314
      ],
      "min": [
        0.3828115165233612,
        0.7584272027015686
      ],
      "type": "VEC2"
    },
    {
      "bufferView": 0,
      "byteOffset": 80592,
      "componentType": 5125,
      "count": 123,
      "type": "SCALAR"
    },
    {
      "bufferView": 2,
      "byteOffset": 255456,
      "componentType": 5126,
      "count": 32,
      "max": [
        0.8818086385726929,
        1.7005174160003662,
        1.3373461961746216
      ],
      "min": [
        -1.0,
        -1.0031702518463135,
        -1.3373451232910156
      ],
      "type": "VEC3"
    },
    {
      "bufferView": 2,
      "byteOffset": 255840,
      "componentType": 5126,
      "count": 32,
      "max": [
        1.0,
        1.0,
        0.9984419345855713
      ],
      "min": [
        -1.0,
        -1.0,
        -0.9984419345855713
      ],
      "type": "VEC3"
    },
    {
      "bufferView": 1,
      "byteOffset": 88272,
      "componentType": 5126,
      "count": 32,
      "max": [
        0.625,
        1.0
      ],
      "min": [
        0.0,
        0.0
      ],
      "type": "VEC2"
    },
    {
      "bufferView": 0,
      "byteOffset": 81084,
      "componentType": 5125,
      "count": 48,
      "type": "SCALAR"
    },
    {
      "bufferView": 2,
      "byteOffset": 256224,
      "componentType": 5126,
      "count": 45,
      "max": [
        -0.9999999403953552,
        0.20822323858737946,
        1.1675992012023926
      ],
      "min": [
        -1.0,
        -1.0031867027282715,
        -1.167598843574524
      ],
      "type": "VEC3"
    },
    {
      "bufferView": 2,
      "byteOffset": 256764,
      "componentType": 5126,
      "count": 45,
      "max": [
        1.0,
        0.0,
        1.0621793222753695e-07
      ],
      "min": [
        1.0,
        -1.0302139941131827e-07,
        -0.0
      ],
      "type": "VEC3"
    },
    {
      "bufferView": 1,
      "byteOffset": 88528,
      "componentType": 5126,
      "count": 45,
      "max": [
        0.48381268978118896,
        0.9915727972984314
      ],
      "min": [
        0.3828115165233612,
        0.7584272027015686
      ],
      "type": "VEC2"
    },
    {
      "bufferView": 0,
      "byteOffset": 81276,
      "componentType": 5125,
      "count": 123,
      "type": "SCALAR"
    }
  ],
  "asset": {
    "extras": {
      "author": "HumAi Club (https://sketchfab.com/2ndlr)",
      "license": "CC-BY-4.0 (http://creativecommons.org/licenses/by/4.0/)",
      "source": "https://sketchfab.com/3d-models/dj-booth-15be961c0b4f446f988b77fa7693bde2",
      "title": "DJ BOOTH"
    },
    "generator": "Sketchfab-12.68.0",
    "version": "2.0"
  },
  "bufferViews": [
    {
      "buffer": 0,
      "byteLength": 81768,
      "name": "floatBufferViews",
      "target": 34963
    },
    {
      "buffer": 0,
      "byteLength": 88888,
      "byteOffset": 81768,
      "byteStride": 8,
      "name": "floatBufferViews",
      "target": 34962
    },
    {
      "buffer": 0,
      "byteLength": 257304,
      "byteOffset": 170656,
      "byteStride": 12,
      "name": "floatBufferViews",
      "target": 34962
    }
  ],
  "buffers": [
    {
      "byteLength": 427960,
      "uri": "scene.bin"
    }
  ],
  "images": [
    {
      "uri": "textures/Circle.010_Bake1_baked.002_baseColor.png"
    },
    {
      "uri": "textures/Loudspeaker_RGB_LIGHT_baseColor.png"
    },
    {
      "uri": "textures/Cube.022_Bake1_baked.001_baseColor.png"
    },
    {
      "uri": "textures/Cube.018_Bake1_baked.001_baseColor.png"
    }
  ],
  "materials": [
    {
      "doubleSided": true,
      "name": "Circle.010_Bake1_baked.002",
      "pbrMetallicRoughness": {
        "baseColorTexture": {
          "index": 0
        },
        "metallicFactor": 0.0,
        "roughnessFactor": 0.5
      }
    },
    {
      "doubleSided": true,
      "emissiveFactor": [
        1.0,
        1.0,
        1.0
      ],
      "emissiveTexture": {
        "index": 1
      },
      "name": "Loudspeaker_RGB_LIGHT",
      "pbrMetallicRoughness": {
        "baseColorTexture": {
          "index": 1
        },
        "metallicFactor": 0.0,
        "roughnessFactor": 0.5
      }
    },
    {
      "doubleSided": true,
      "name": "Cube.022_Bake1_baked.001",
      "pbrMetallicRoughness": {
        "baseColorTexture": {
          "index": 2
        },
        "metallicFactor": 0.0,
        "roughnessFactor": 0.5
      }
    },
    {
      "doubleSided": true,
      "name": "Cube.018_Bake1_baked.001",
      "pbrMetallicRoughness": {
        "baseColorTexture": {
          "index": 3
        },
        "metallicFactor": 0.0,
        "roughnessFactor": 0.5
      }
    },
    {
      "doubleSided": true,
      "name": "DJ_AUDIO_MIXER_BOOTH",
      "pbrMetallicRoughness": {
        "baseColorFactor": [
          0.107023,
          0.107023,
          0.107023,
          1.0
        ],
        "metallicFactor": 0.0,
        "roughnessFactor": 0.340909
      }
    }
  ],
  "meshes": [
    {
      "name": "Object_0",
      "primitives": [
        {
          "attributes": {
            "NORMAL": 1,
            "POSITION": 0,
            "TEXCOORD_0": 2
          },
          "indices": 3,
          "material": 0,
          "mode": 4
        }
      ]
    },
    {
      "name": "Object_1",
      "primitives": [
        {
          "attributes": {
            "NORMAL": 5,
            "POSITION": 4,
            "TEXCOORD_0": 6,
            "TEXCOORD_1": 7
          },
          "indices": 8,
          "material": 1,
          "mode": 4
        }
      ]
    },
    {
      "name": "Object_2",
      "primitives": [
        {
          "attributes": {
            "NORMAL": 10,
            "POSITION": 9,
            "TEXCOORD_0": 11
          },
          "indices": 12,
          "material": 2,
          "mode": 4
        }
      ]
    },
    {
      "name": "Object_3",
      "primitives": [
        {
          "attributes": {
            "NORMAL": 14,
            "POSITION": 13,
            "TEXCOORD_0": 15
          },
          "indices": 16,
          "material": 3,
          "mode": 4
        }
      ]
    },
    {
      "name": "Object_4",
      "primitives": [
        {
          "attributes": {
            "NORMAL": 18,
            "POSITION": 17,
            "TEXCOORD_0": 19,
            "TEXCOORD_1": 20
          },
          "indices": 21,
          "material": 4,
          "mode": 4
        }
      ]
    },
    {
      "name": "Object_5",
      "primitives": [
        {
          "attributes": {
            "NORMAL": 23,
            "POSITION": 22,
            "TEXCOORD_0": 24
          },
          "indices": 25,
          "material": 4,
          "mode": 4
        }
      ]
    },
    {
      "name": "Object_6",
      "primitives": [
        {
          "attributes": {
            "NORMAL": 27,
            "POSITION": 26,
            "TEXCOORD_0": 28
          },
          "indices": 29,
          "material": 4,
          "mode": 4
        }
      ]
    },
    {
      "name": "Object_7",
      "primitives": [
        {
          "attributes": {
            "NORMAL": 31,
            "POSITION": 30,
            "TEXCOORD_0": 32
          },
          "indices": 33,
          "material": 4,
          "mode": 4
        }
      ]
    },
    {
      "name": "Object_8",
      "primitives": [
        {
          "attributes": {
            "NORMAL": 35,
            "POSITION": 34,
            "TEXCOORD_0": 36
          },
          "indices": 37,
          "material": 4,
          "mode": 4
        }
      ]
    }
  ],
  "nodes": [
    {
      "children": [
        1
      ],
      "matrix": [
        1.0,
        0.0,
        0.0,
        0.0,
        0.0,
        2.220446049250313e-16,
        -1.0,
        0.0,
        0.0,
        1.0,
        2.220446049250313e-16,
        0.0,
        0.0,
        0.0,
        0.0,
        1.0
      ],
      "name": "Sketchfab_model"
    },
    {
      "children": [
        2
      ],
      "name": "root"
    },
    {
      "children": [
        3,
        5,
        7,
        9,
        11,
        13,
        15,
        17,
        19
      ],
      "matrix": [
        1.0,
        0.0,
        0.0,
        0.0,
        0.0,
        2.220446049250313e-16,
        1.0,
        0.0,
        0.0,
        -1.0,
        2.220446049250313e-16,
        0.0,
        0.0,
        0.0,
        0.0,
        1.0
      ],
      "name": "GLTF_SceneRootNode"
    },
    {
      "children": [
        4
      ],
      "matrix": [
        -0.03181100264191591,
        -4.803327873139204e-09,
        -0.0,
        0.0,
        7.698918274313311e-08,
        -0.509876310825342,
        0.0,
        0.0,
        0.0,
        0.0,
        0.031811002641916275,
        0.0,
        6.600857257843018,
        1.661081075668335,
        -7.224701881408691,
        1.0
      ],
      "name": "Circle.010_Baked_0"
    },
    {
      "mesh": 0,
      "name": "Object_4"
    },
    {
      "children": [
        6
      ],
      "matrix": [
        0.633665919303894,
        0.0,
        0.0,
        0.0,
        0.0,
        0.06103752925992012,
        0.0,
        0.0,
        0.0,
        0.0,
        1.7744126319885254,
        0.0,
        6.4185333251953125,
        0.05031384527683258,
        -6.226187705993652,
        1.0
      ],
      "name": "Cube.000_Baked_1"
    },
    {
      "mesh": 1,
      "name": "Object_6"
    },
    {
      "children": [
        8
      ],
      "matrix": [
        0.450727254152298,
        0.0,
        0.0,
        0.0,
        0.0,
        0.4908452033996582,
        0.0,
        0.0,
        0.0,
        0.0,
        0.30528873205184937,
        0.0,
        6.40347146987915,
        0.7808429002761841,
        -7.742641448974609,
        1.0
      ],
      "name": "Cube.022_Baked_2"
    },
    {
      "mesh": 2,
      "name": "Object_8"
    },
    {
      "children": [
        10
      ],
      "matrix": [
        0.5570573806762695,
        0.0,
        0.0,
        0.0,
        0.0,
        0.06103752925992012,
        0.0,
        0.0,
        0.0,
        0.0,
        1.5926536321640015,
        0.0,
        6.4185333251953125,
        0.20044340193271637,
        -6.226187705993652,
        1.0
      ],
      "name": "Cube.018_Baked_3"
    },
    {
      "mesh": 3,
      "name": "Object_10"
    },
    {
      "children": [
        12
      ],
      "matrix": [
        0.41516268253326416,
        0.0,
        0.0,
        0.0,
        0.0,
        0.4980498254299164,
        0.0,
        0.0,
        0.0,
        0.0,
        0.8520293235778809,
        0.0,
        6.3501434326171875,
        0.8383790850639343,
        -6.226187705993652,
        1.0
      ],
      "name": "Cube.019_4"
    },
    {
      "mesh": 4,
      "name": "Object_12"
    },
    {
      "children": [
        14
      ],
      "matrix": [
        0.450727254152298,
        0.0,
        0.0,
        0.0,
        0.0,
        0.4908452332019806,
        0.0,
        0.0,
        0.0,
        0.0,
        0.30727508664131165,
        0.0,
        6.403471946716309,
        0.7808429002761841,
        -7.742641448974609,
        1.0
      ],
      "name": "Cube.021_5"
    },
    {
      "mesh": 5,
      "name": "Object_14"
    },
    {
      "children": [
        16
      ],
      "matrix": [
        0.450727254152298,
        0.0,
        0.0,
        0.0,
        0.0,
        0.4908452332019806,
        0.0,
        0.0,
        0.0,
        0.0,
        0.30528873205184937,
        0.0,
        6.403471946716309,
        0.7808429002761841,
        -7.742641448974609,
        1.0
      ],
      "name": "Cube.023_6"
    },
    {
      "mesh": 6,
      "name": "Object_16"
    },
    {
      "children": [
        18
      ],
      "matrix": [
        0.450727254152298,
        0.0,
        0.0,
        0.0,
        0.0,
        0.4908452332019806,
        0.0,
        0.0,
        0.0,
        0.0,
        0.30727508664131165,
        0.0,
        6.403471946716309,
        0.7808429002761841,
        -4.711268424987793,
        1.0
      ],
      "name": "Cube.028_7"
    },
    {
      "mesh": 7,
      "name": "Object_18"
    },
    {
      "children": [
        20
      ],
      "matrix": [
        0.450727254152298,
        0.0,
        0.0,
        0.0,
        0.0,
        0.4908452332019806,
        0.0,
        0.0,
        0.0,
        0.0,
        0.30528873205184937,
        0.0,
        6.403471946716309,
        0.7808429002761841,
        -4.711268424987793,
        1.0
      ],
      "name": "Cube.030_8"
    },
    {
      "mesh": 8,
      "name": "Object_20"
    }
  ],
  "samplers": [
    {
      "magFilter": 9729,
      "minFilter": 9987,
      "wrapS": 10497,
      "wrapT": 10497
    }
  ],
  "scene": 0,
  "scenes": [
    {
      "name": "Sketchfab_Scene",
      "nodes": [
        0
      ]
    }
  ],
  "textures": [
    {
      "sampler": 0,
      "source": 0
    },
    {
      "sampler": 0,
      "source": 1
    },
    {
      "sampler": 0,
      "source": 2
    },
    {
      "sampler": 0,
      "source": 3
    }
  ]
}
